<?xml version="1.0" encoding="utf-8"?>
<!-- Generator: Adobe Illustrator 22.1.0, SVG Export Plug-In . SVG Version: 6.00 Build 0)  -->
<svg version="1.1" xmlns="http://www.w3.org/2000/svg" xmlns:xlink="http://www.w3.org/1999/xlink" x="0px" y="0px"
	 viewBox="0 0 48 48" style="enable-background:new 0 0 48 48;" xml:space="preserve">
<style type="text/css">
	.st0{fill:#848484;}
	.st1{fill:#BA0000;}
</style>
<g id="Layer_3_copy">
	<g>
		<circle class="st0" cx="24" cy="24" r="23"/>
		<path d="M24,2c12.1,0,22,9.9,22,22s-9.9,22-22,22S2,36.1,2,24S11.9,2,24,2 M24,0C10.7,0,0,10.7,0,24s10.7,24,24,24s24-10.7,24-24
			S37.3,0,24,0L24,0z"/>
	</g>
</g>
<g id="Layer_3_copy_2">
	<g>
		<path class="st1" d="M22.5,0.5c-2.6,0.2-5,0.7-7.3,1.6l-13,13c-0.9,2.3-1.5,4.7-1.6,7.3L22.5,0.5z"/>
		<path class="st1" d="M47.5,24c0-0.7,0-1.4-0.1-2.1L21.9,47.4c0.7,0.1,1.4,0.1,2.1,0.1c1.3,0,2.5-0.1,3.7-0.3l19.5-19.5
			C47.4,26.5,47.5,25.3,47.5,24z"/>
		<path class="st1" d="M7.9,41.1L41.1,7.9c-0.9-1-1.9-1.9-3-2.7L5.2,38.1C6,39.2,6.9,40.2,7.9,41.1z"/>
		<path class="st1" d="M33.5,2.5c-1.4-0.6-2.8-1.1-4.2-1.4L1.1,29.3c0.3,1.5,0.8,2.9,1.4,4.2L33.5,2.5z"/>
		<path class="st1" d="M46.1,15.9c-0.5-1.3-1.1-2.6-1.8-3.8L12.1,44.2c1.2,0.7,2.5,1.3,3.8,1.8L46.1,15.9z"/>
	</g>
</g>
<g id="Layer_3_copy_3">
	<g>
		<path d="M24,2c12.1,0,22,9.9,22,22s-9.9,22-22,22S2,36.1,2,24S11.9,2,24,2 M24,0C10.7,0,0,10.7,0,24s10.7,24,24,24s24-10.7,24-24
			S37.3,0,24,0L24,0z"/>
	</g>
</g>
<g id="Layer_2_1_">
	<path d="M47,25.4c0,0.1,0.1,0.1,0.1,0.2c-0.1-1.6-0.7-3.7-0.8-4.8c-0.3-2.6-1-5.2-2.1-7.6c-1.2-2.4-2.7-4.2-4.5-5.7
		c0,0.1,0,0.2,0,0.3c-0.1,0.1-0.2,0.2-0.3,0c-0.1-0.1-0.3-0.3-0.4-0.4c0.1-0.1,0.1-0.3,0-0.5c-0.5-0.4-1-0.7-1.5-1.1
		C37.6,6,37.7,6.2,38,6.4c0.1,0,0.2,0.3,0.2,0.4c-0.1,0-0.2-0.1-0.4-0.1c-0.3-0.1-0.7-0.3-0.9-0.4c-0.1,0-0.2,0.1-0.2,0.2
		c0.1,0.5,0,0.7-0.5,0.7c-0.5-0.1-0.9,0.1-1,0.7c-0.2,0.4-0.2,0.4-0.7,0.1c-0.1,0-0.2-0.1-0.3-0.2c0.4,0.6,0.4,0.7,0.1,0.8
		c0,0-0.3,0-0.5-0.2c0,0.1-0.1,0.3-0.3,0.4c0.2,0.2,0.3,0.2,0.3,0.3c0,0.3-0.4,1-0.7,1c-0.1,0-0.1,0-0.2,0c-0.2-0.2-0.6-0.3-0.7-0.6
		c-0.2-0.6-0.4-0.9-0.9-1.2c0.5,0.2,0.9,0.2,1.4,0.4c0.3,0,0.6-0.1,0.6-0.4c0-0.1-0.2-0.4-0.4-0.6c-0.5-0.2-0.8-0.3-1.2-0.5
		c-0.5-0.2-1-0.4-1.6-0.6c0.2,0,0.3-0.1,0.3-0.1c-0.2-0.1-0.3-0.1-0.5-0.2c-0.8,0-1.4,0.3-1.8,0.7c-0.3,0.2-0.8,0.6-0.8,0.9
		c-0.3,1.1-0.6,2.4-1.9,3.2c-0.5,0.3-0.5,0.8-0.5,1.3c0.2,0.2,0.2,0.5,0.2,0.6c0.2,0.2,0.2,0.3,0.3,0.3c0,0,0.2,0,0.3-0.2
		c0.2-0.2,0.3-0.3,0.7-0.6c0.3,0.8,0.5,1.3,0.7,2c0,0.2,0,0.5,0.3,0.3c0.2-0.2,0.2-0.3,0.3-0.3c0.3,0,0.3-0.3,0.3-0.5
		c0-0.5,0-1,0.3-1.3c0.2-0.2,0.2-0.5-0.2-0.8c0,0-0.2-0.3-0.2-0.5c0-0.5,0.3-0.9,0.6-1.2c0.3-0.3,0.5-0.4,0.3-0.7
		c0-0.3,0.1-0.6,0.5-0.6c0.5-0.1,0.7,0.3,0.8,0.5c0.2,0.2,0,0.4,0,0.6c-0.2,0.1-0.2,0.1-0.3,0.3c-0.3,0.3-0.5,0.7-0.4,1.2
		c0,0.6,0.4,0.8,1,0.5c0.3-0.1,0.5-0.3,1-0.1c0.3,0,0.5,0.3,0.5,0.5c0,0-0.1,0.3-0.3,0.3c-0.2,0-0.5,0-0.6-0.2
		c-0.3-0.3-0.5-0.2-0.8,0c0.2,0.5,0.2,0.8,0.4,1.1c0,0.2,0,0.3-0.2,0.3c-0.2,0-0.3,0.2-0.5,0.3c0,0.2,0,0.3,0,0.5
		c0,0.7-0.1,0.8-0.8,0.8c-0.3,0-0.5,0.2-0.7,0.2c-0.7,0.2-1,0-1.5-0.4c-0.2,0-0.2,0.2-1.2-0.2c0-0.2-0.2-0.3-0.3-0.5
		c0.2-0.2,0.2-0.2,0.3-0.2c0,0-0.2-0.2-0.2-0.3c0.1-0.1,0.1-0.1,0.2-0.2c0-0.2-0.2-0.3-0.3-0.5c-0.2,0.5-0.3,1,0,1.5
		c0.2,0.3,0.2,0.5-0.2,0.8c-0.5,0.5-1.2,1-1.7,1.7c-0.3,0.5-0.9,0.5-1.4,0.7c-0.2,0-0.3,0.2-0.5,0.2c0.3,0.5,0.7,0.9,1,1.4
		c0.2,0.3,0.2,0.7-0.2,1c-0.2,0.3-0.5,0.2-0.9,0.2c-0.2,0-0.5-0.2-0.9-0.2c-0.3,0-0.7,0.2-0.7,0.5c-0.2,0.5-0.2,1.2-0.2,1.9
		c0.2,0.2,0.5,0.3,0.7,0.5c0.3,0,0.9,0,1-0.2c0.3-0.2,0.7-0.5,1-0.9c-0.2-0.7,0.2-0.9,0.7-1.2c0.2,0,0.3-0.3,0.3-0.5
		c0-0.3,0.2-0.5,0.5-0.3c0.5,0.3,0.7,0,1-0.2c0.3-0.3,0.5-0.2,0.9,0.2c0.2,0.5,0.5,0.9,0.9,1c0.3,0.3,1,0.7,1,1.4
		c0.2-0.2,0.3-0.3,0.3-0.5c-0.2-0.3-0.2-0.5,0.3-0.3c-0.2-0.2-0.2-0.2-0.2-0.2c-0.7-0.3-1.2-0.7-1.7-1.4c-0.3-0.3-0.3-0.7,0.2-0.9
		c0.2,0.2,0.2,0.2,0.2,0.3c0.2-0.2,0.2-0.2,0.2-0.2c0.2,0,0.2,0,0.3,0.2c0.2,0.2,0.3,0.3,0.5,0.5c0.3,0.3,0.8,0.5,1,1
		c0.2,0.7,0.5,1.2,0.7,1.7c0,0.2,0.2,0.2,0.3,0.3c0-0.2,0.2-0.2,0.2-0.3c0.2,0,0.2-0.2,0.2-0.2c0.2-0.3,0.2-0.2,0-0.5
		c-0.2-0.2-0.2-0.3-0.3-0.5c0.2-0.2,0.2-0.2,0.3-0.3c0.3-0.3,0.7-0.3,0.8,0c0.2,0.3,0.3,0.8,0.5,1.2c0.2,0.5,0.8,0.5,1.1,0.3
		c0-0.2,0.3,0,0.3,0c0.3,0.2,0.5,0.2,0.6,0c0.2-0.2,0.3-0.3,0.5-0.3c0.2,0.3,0.3,0.5,0.5,0.7c0.2,0.2,0.2,0.3,0.2,0.5
		c0,0.3,0,0.8-0.2,1.2c-0.2,0.3-0.3,0.5-0.8,0.5c-0.2,0-0.3-0.2-0.5,0c-0.5,0.2-1,0.2-1.4,0c-0.3,0-0.7-0.2-1-0.3
		c-0.3-0.2-0.7-0.2-0.8,0.3c-0.2,0.8-0.3,1-1,0.5c-0.2,0-0.2-0.2-0.3-0.2c-0.2,0-0.5-0.3-0.7-0.3c-0.7,0-1.2-0.5-1.7-0.8
		c0.5-0.3,0.3-0.9,0.2-1.2c-0.5,0.2-1,0.3-1.5,0.3c-0.7,0-1.4,0.2-2.1,0.5c-0.2,0.2-0.5,0.2-0.9,0.2c-0.3-0.2-0.7-0.3-1-0.5
		c0.2,0.7-0.2,1-1.2,1.4c-0.3,0.2-0.7,0.5-0.7,1c0.2,0.7-0.2,1-0.7,1.2c-0.3,0.2-0.7,0.3-0.8,0.7s-0.5,0.8-0.6,1.1s-0.2,0.7-0.1,0.8
		c0.2,0.7,0.2,1.5-0.1,2.1c-0.2,0.2-0.1,0.5,0,0.6c0.2,0.5,0.7,0.9,1,1.4c0.1,0.1,0.1,0.1,0.2,0.2c0.5,0.3,0.8,0.5,1.2,0.8
		c0.3,0.1,0.5,0.3,0.8,0.2c0.5-0.1,0.8-0.1,1.3-0.1c0.3,0,0.5,0,0.7,0c0.5-0.1,1-0.3,1.5-0.4c0.3-0.2,0.5,0,0.7,0.3s0.3,0.4,0.7,0.3
		c0.5-0.1,0.7,0.1,1,0.4c0.2,0.3,0.1,0.5,0,0.8c0,0.1-0.2,0.3-0.2,0.4s0,0.4,0.2,0.4c0.8,0.5,1.1,1.1,1.3,1.8
		c0.1,0.3,0.1,0.6-0.2,0.8c-0.6,0.5-0.7,0.9-0.2,1.3c0.4,0.3,0.5,0.7,0.5,1c0,0.1,0,0.2,0.1,0.3c0.3,0.3,0.5,0.4,0.5,0.7
		c0,0.2,0.2,0.2,0.5,0.1c0.3-0.1,0.6-0.1,0.9-0.2c0.4-0.1,1-0.1,1.3-0.3c0.5-0.2,0.9-0.6,1.4-0.9c0.2-0.1,0.2-0.3,0.2-0.4
		c0-0.1,0-0.2,0.2-0.2c0.9-0.3,0.9-0.3,0.7-1c0,0,0-0.1,0-0.1c0.3-0.2,0.6-0.5,1.1-0.7c0.5-0.3,0.8-0.5,0.8-0.9
		c0.1-0.5,0.2-1.1-0.1-1.6c-0.1-0.4,0.1-0.5,0.2-0.8c0.4-0.6,0.8-1,1.1-1.5c0.3-0.3,0.6-0.6,0.9-0.9c0.6-0.8,0.9-1.7,1.2-2.4
		c0-0.1,0-0.3,0-0.4c-0.1,0-0.3,0-0.3,0c-0.1,0.2-0.4,0.5-0.7,0.7c-0.3,0.3-1.1,0.3-1.1-0.2c-0.1-0.3-0.4-0.4-0.5-0.6
		c-0.3-0.3-0.6-0.4-0.7-0.7c-0.3-0.4-0.7-1-0.7-1.7c-0.4-0.6-0.7-1.3-1.2-1.9c0.1,0,0.1,0,0.2,0c0.2-0.2,0.3-0.3,0.3-0.5
		c0.2,0.2,0.2,0.3,0.3,0.5c0.5,0.5,0.9,1.1,1.2,1.7c0.3,0.5,0.6,0.9,0.8,1.4c0.3,0.3,0.5,0.7,0.4,1.2c0,0.3,0,0.5,0.3,0.3
		c0.4-0.3,0.9-0.5,1.3-0.9c0.4-0.3,0.7-0.8,1.1-1.2c0.3-0.3,0.5-0.5,0.7-0.7c0.4-0.3,0.5-1,0.8-1.6c0.1,0-0.1-0.3-0.2-0.4
		c-0.1-0.1-0.4-0.3-0.5-0.3c-0.1,0.3-0.3,0.8-0.6,0.8c-0.1,0-0.5-0.4-0.5-0.6c-0.1,0-0.3,0-0.3,0c-0.1-0.3-0.4-0.6-0.5-0.9
		c-0.1-0.3-0.1-0.6,0.1-1c0.1,0.2,0.4,0.3,0.5,0.6c0.3,0.5,0.8,0.6,1.1,0.2c0,0,0.1,0.1,0.2,0.1c0.1,0,0.2,0.1,0.4,0.1
		c0.5-0.2,0.9-0.4,1.4-0.6c0.2-0.2,0.3-0.2,0.4,0.1c0.2,0.3,0.6,0.4,0.6,0.4s-0.1,0.2-0.2,0.3c0.1,0,0.3,0.1,0.3,0.1
		c0.1,0,0.2-0.3,0.3-0.5c0.1,0.7,0.3,1.3,0.4,1.8c0.1,0,0.1,0.1,0.1,0.1c0.1,0.4,0.3,0.9,0.3,1.3c0.1,0.1,0.1,0.3,0.2,0.4
		c0.4-0.8,0.5-1.3,0.4-2c0-0.4,0-0.7,0.2-1c0.1,0,0.1-0.2,0.1-0.2c0.1-0.6,0.4-1.2,0.5-1.8c0-0.1,0-0.1,0.1-0.1
		c0.1-0.3,0.2-0.4,0.3-0.6c0.1,0.5,0.4,0.7,0.4,1.5c0,0,0,0,0.1,0c0.1-0.1,0.1-0.3,0.2-0.6c0.1,0.5,0.2,1,0.2,1.5
		C47,26.1,47,25.8,47,25.4z M36.5,21.3c-0.3,0.2-0.8,0.2-1.1,0c-0.6-0.3-1.1-0.3-1.6,0.2c-0.3,0.2-0.5,0.2-0.8,0.2
		c-0.2,0-0.5,0.2-0.8,0c0.2,0,0.3-0.2,0.6-0.2c-0.5-0.3-0.7-0.7-0.3-1.2c0.3-0.3,0.3-0.8,0.5-1.3c0.2-0.3,0.3-0.5,0.5-0.2
		c0.2,0,0.3,0,0.3,0c0.2,0.3,0.2,0.5,0.3,0.8c0.2-0.2,0.3-0.3,0.6-0.5c-0.2,0-0.3-0.2-0.5-0.2c0-0.1,0-0.1,0-0.2
		c0.3-0.3,0.6-0.5,1.1-0.8c-0.1,0.5-0.1,0.8-0.3,1.3c0.2,0.2,0.5,0.5,0.8,0.7s0.6,0.3,0.8,0.5C36.8,20.8,36.8,21.1,36.5,21.3z
		 M39.7,22.4c-0.3,0.3-0.5,0.2-0.8,0c-0.1-0.2-0.3-0.3-0.4-0.5c-0.1-0.2-0.1-0.5-0.1-0.6c0.1-0.3,0.1-0.6-0.1-1
		c-0.3-0.5-0.6-0.8-0.7-1.3c0-0.2,0-0.5,0.1-0.6c0.1-0.3,0.4-0.6,0.6-0.8c0.3-0.1,0.5-0.1,0.7,0.2c0.1,0.1,0.1,0.1,0.1,0.2
		c0.3,0.5,0.3,0.5-0.1,0.8c-0.5,0.3-0.5,0.5-0.1,0.8c0.1,0.2,0.1,0.2,0.1,0.3c0.3,0,0.5,0.2,0.5,0.5c0.1,0.5,0.1,0.9,0.3,1.3
		C39.8,21.9,40,22.2,39.7,22.4z M40.8,19.3c-0.1,0.1-0.2-0.2-0.4-0.3c-0.4-0.6-0.4-1.1,0.1-1.5c0.1,0.3,0.3,0.5,0.3,0.8
		c0.1,0.2,0.2,0.3,0.3,0.5C41,18.8,40.9,19.1,40.8,19.3z"/>
	<path d="M23.6,17.1c-0.3,0-1,0.2-1.5,0.2c0,0,0,0,0-0.2c0.2-0.2,0.2-0.2,0.3-0.3c-0.2,0-0.3-0.2-0.5-0.3c0.2-0.2,0.5-0.3,0.5-0.5
		c0.2-0.2,0.2-0.5,0-0.7c0-0.2-0.3-0.3-0.5-0.5c0-0.2-0.2-0.5-0.2-0.7c0-0.2,0-0.5,0-0.7c0.2-0.3,0.3-0.5,0.8-0.2
		c0.3,0.2,0,0.3,0,0.5c0,0.2-0.2,0.2-0.2,0.2c0.3,0.7,0.7,1.2,1,1.8c0,0,0.2,0,0.3,0.2c0,0,0,0.2-0.2,0.3
		C23.7,16.8,23.7,16.8,23.6,17.1z"/>
	<path d="M38.3,37.8c0.1,0.3,0,0.4-0.2,0.8c-0.3,0.5-0.7,1.1-1,1.7c-0.2,0.2-0.3,0.5-0.6,0.6c-0.3,0.2-0.5,0-0.3-0.1
		c0.3-0.5,0.6-0.9,0.7-1.4c0.1-0.1,0.1-0.1,0.1-0.1c0.3-0.3,0.6-0.7,0.9-1C38,37.9,38.1,37.9,38.3,37.8z"/>
	<path d="M17.8,8.8c0.5,0,1-0.2,1.4-0.2c0.2,0,0.3,0,0.5,0.1c0.2,0,0.2,0.3,0,0.4c0,0.2-0.2,0.2-0.3,0.3c-0.2,0.2-0.5,0.2-0.7,0.3
		c-0.3,0.3-0.7,0.3-1,0C17.6,9.6,17.4,9.3,17.8,8.8C17.6,8.8,17.6,8.8,17.8,8.8L17.8,8.8z"/>
	<path d="M21.7,14.9c0,0.5,0,1-0.2,1.3c0,0.2-0.5,0.2-0.9,0.3c-0.1-0.1-0.1-0.1-0.2-0.2C20.4,15.9,20.9,15.1,21.7,14.9z"/>
	<g>
		<path d="M6.7,9.4C6.7,9.4,6.7,9.4,6.7,9.4C6.8,9.3,6.9,9.2,7,9.1C6.8,9.3,6.7,9.6,6.6,9.9c0,0,0,0.1,0.1,0.2
			C6.8,9.9,6.9,9.9,7,9.8c0.1,0.1,0.1,0.2,0.1,0.3C7.2,10,7.3,10,7.3,9.9c0-0.4-0.1-0.7-0.1-1.1c0,0-0.1,0.1-0.1,0.1
			c0.1-0.1,0.2-0.2,0.3-0.4c0.2,0,0.3,0,0.4,0c0.3-0.2,0.6-0.2,0.6-0.7c0,0,0.3-0.2,0.3-0.3c0-0.1,0.1-0.2,0.2-0.3
			C9,7.3,9,7.4,9.1,7.4c0,0,0.1-0.1,0.3-0.2c0,0.1,0.1,0.2,0,0.3C9.5,7.7,9.5,7.9,9.5,8c0,0.1,0,0.2-0.1,0.4c0,0.5-0.6,1.2-1.2,1.3
			c-0.2-0.1-0.4,0.1-0.5,0.5c0.4-0.3,0.4,0,0.5,0.2c0.1,0.1,0.1,0.4,0.1,0.5c0.1,0.2,0,0.7,0.4,0.8c0.3-0.4-0.2-0.7,0-1.1
			c0.1,0.1,0.1,0.2,0.2,0.4c0.1,0,0.2,0.1,0.2,0.1s0.1-0.2,0.2-0.3c0-0.3,0.1-0.5,0-0.8C9.3,9.6,9.4,9.5,9.6,9.2
			c0.1,0.2,0,0.5,0.1,0.7c0.3-0.2,0.4-0.2,0.6-0.3c0.3-0.3,0.3-1.1,0-1.2c-0.1-0.1-0.2-0.2-0.2-0.3c0,0,0.1-0.1,0.3-0.3
			c0.4-0.7,0.2-1.1,0-1.5c0-0.1,0.2-0.2,0.2-0.4c0,0-0.1-0.1-0.1-0.1C9,6.9,7.7,8.1,6.7,9.4z"/>
		<path d="M13.4,38.2c-0.3-0.1-0.5-0.3-0.8-0.4c-0.2-0.1-0.3-0.3-0.5-0.3c-0.6-0.2-1-0.3-1.4-0.8c-0.2-0.3-0.6-0.5-0.8-0.5
			c-0.1-0.1-0.2-0.3-0.3-0.3c-0.1,0-0.3,0-0.4,0.1c-0.3-0.2-0.2-0.3-0.1-0.4c0.2-0.1,0.2-0.2,0.1-0.5c-0.1-0.1,0-0.3-0.2-0.4
			c-0.3-0.3-0.4-0.7-0.7-0.8c-0.9-0.1-1.1-1.1-1.7-1.6c0-0.4-0.4-0.5-0.6-0.6c-0.3-0.3-0.6-0.5-0.9-0.8c-0.2-0.2-0.3-0.3-0.5-0.2
			c0,0.1,0,0.3,0,0.4c-0.1,0-0.1,0-0.1,0c-0.1-0.2-0.1-0.2-0.1-0.3c0-0.1,0-0.3,0-0.4c-0.1,0-0.2,0.1-0.3,0.1
			c-0.1,0.1-0.3,0.2-0.4,0.3c-0.2-0.4-0.3-0.7-0.5-0.7c-0.1,0-0.2-0.2-0.2-0.2c-0.2-0.4-0.2-0.8-0.3-1.5c0.1-0.7,0-0.8-0.3-1.1
			c-0.1,0-0.1-0.2-0.2-0.2c0.1-0.4,0.2-0.8,0.3-1.2c0,0,0-0.1,0-0.3c-0.1,0-0.1,0-0.2,0c-0.1,0-0.1,0.1-0.1,0.3
			c-0.1,0-0.1,0.1-0.2,0.1c-0.2,0-0.3-0.4-0.4-0.8c-0.1-0.7-0.1-1.2,0.1-1.9c0-0.1,0-0.1,0-0.1c0-0.5,0.3-0.9,0.5-0.5
			c0,0.1,0,0.3,0.1,0.3c0.1,0,0.1,0,0.2,0c0-0.1,0-0.1,0-0.3c0.3,0.1,0.9,0.7,0.8,1.6c0,0.3,0,0.6,0,0.7c0,0.1,0.1,0.1,0.2,0.3
			c0,0,0.1-0.1,0.1-0.3c0-0.4-0.1-0.9-0.1-1.3c0-0.4,0-0.7,0.2-0.9c0.1-0.1,0.3-0.3,0.5-0.4c0.4-0.1,0.4-0.3,0.4-0.9
			c0-0.1,0-0.6,0-0.6s0.1,0.1,0.1,0.3c0.2-0.4,0.4-0.7,0.6-1.2c0.1,0.1,0.1,0.3,0.1,0.3c0.2,0,0.3-0.2,0.4-0.2
			c0.1-0.3,0.1-0.6,0.2-0.8c0.3-0.3,0.8-0.5,1.1-0.5c-0.1,0.2-0.4,0.3-0.2,0.6c0.3-0.2,0.7-0.2,0.9-0.4c0.1,0,0.2-0.2,0.2-0.2
			c0.1-0.2,0.1-0.2,0.1-0.3c-0.1,0-0.1,0-0.2,0c-0.2,0.2-0.6-0.1-0.6-0.4c-0.1-0.1-0.1-0.3-0.1-0.6c0.1,0,0.4-0.2,0.4-0.2
			s-0.2-0.1-0.3-0.1c-0.2,0-0.5,0.2-0.7,0.4c-0.1,0.2-0.2,0.2-0.3,0.3c0.5-0.8,1.1-1.4,1.8-1c0,0,0.1,0,0.1,0
			c0.2,0.1,0.4,0.1,0.6-0.2c0.1,0,0.3-0.2,0.4-0.2c0.1,0.1,0.4,0,0.4-0.2c0.1-0.2,0.3-0.5,0-0.8c0-0.2-0.1-0.1-0.1-0.3
			c0.1-0.3-0.1-0.4-0.2-0.6c0-0.3-0.2-0.6-0.1-0.7c0.3-0.6,0.1-1,0.1-1.4c0-0.1-0.1-0.1-0.1-0.1C9,12.5,9,12.6,8.8,12.8
			c-0.1,0.2-0.3,0.2-0.4,0.2c-0.4-0.1-0.4-0.5-0.3-0.8c0-0.3,0.3-0.6,0-0.8c0-0.1,0-0.1,0-0.1c0-0.3-0.2-0.5-0.4-0.5
			c-0.2,0-0.4,0.3-0.4,0.6c0,0.1,0,0.5-0.2,0.7c-0.3,0.4-0.3,0.7-0.3,1.1c0,0.4-0.2,0.9-0.5,1.1C6,14.4,5.9,14.7,5.9,15
			c0,0.3,0,0.6-0.1,0.7c0,0.1-0.2,0.2-0.3,0.2c-0.1-0.1-0.3-0.4-0.3-0.7c-0.1-0.4,0-0.7,0.2-1.1c0.1,0,0-0.3,0-0.3
			c-0.3-0.2-0.4-0.5-0.4-0.9c-0.1-0.2-0.2-0.3-0.3-0.4c-1.8,3.4-2.9,7.1-3.5,10.8c0,0,0,0,0,0.1c0,0.3,0.1,0.7,0.1,0.9
			c0,0.5,0,0.9,0.2,1.3c0.1,0.4,0.2,0.8,0.4,1c0.2,0.2,0.3,0.4,0.3,0.7c0,0.1,0.1,0.3,0.1,0.4c0.1,0.4,0.4,0.7,0.5,1.2
			c0,0.1,0,0.4,0.1,0.6c0.1,0.4,0.3,0.7,0.4,1c0.2,0.3,0.3,0.6,0.3,0.1c0,0,0.1,0,0.1,0c0.1,0.3,0.2,0.4,0.3,0.7
			c0.2,0.6,0.3,1.2-0.1,1.6c-0.1,0.1-0.2,0.3-0.2,0.5c-0.1,0.2,0,0.6,0,0.8c0,0.1,0.1,0.3,0.2,0.4c0.3,0.4,0.5,0.9,0.7,1.3
			c0.3,0.6,0.6,1.2,1.2,1.7c0.6,0.6,1,1.2,1.2,1.8c0,0.1,0,0.2,0.1,0.3c0.7,0.5,1.4,1.1,1.7,1.8c0,0,0.1,0.1,0.1,0.2
			c0.4,0.4,0.8,0.7,1.1,1c0.2,0.1,0.4,0.3,0.6,0.4c0,0,0,0,0,0c0.1,0,0-0.1-0.1-0.2c-0.2-0.2-0.3-0.3-0.6-0.5
			c0.2,0.1,0.4,0.2,0.5,0.3c0.4,0.2,0.6,0.2,0.7,0c0.2-0.1,0.3-0.2,0.4-0.4c0.1-0.1,0.1-0.2,0-0.2c-0.1-0.3,0-0.4,0.3-0.4
			c0.2,0,0.5,0,0.7,0c0.1,0,0.4,0,0.4-0.1c0.2-0.4,0.4-0.8,0.1-1.3c-0.2-0.1-0.1-0.3,0.1-0.4c0.2-0.2,0.3-0.4,0.6-0.7
			C13.9,38.8,13.7,38.3,13.4,38.2z M5,18.8c0.1,0.1,0.1,0.3,0.2,0.4c-0.1,0.3-0.2,0.3-0.3,0c-0.1-0.1-0.3-0.1-0.4-0.3
			c-0.2,0.4-0.5,0.5-0.7,0.2c0.3,0,0.5,0,0.7-0.2C4.6,18.8,4.6,18.8,5,18.8z M3.7,19.1c-0.2,0-0.2-0.1-0.2-0.3
			c0.1-0.3,0.2-0.7,0.3-1c0,0,0-0.1,0.1-0.2c0.3-0.2,0.6,0.1,0.8,0.5c0,0.1,0,0.3,0,0.4c-0.1,0-0.2,0-0.3,0c0-0.1,0-0.1,0-0.1
			c-0.1,0.2-0.1-0.3-0.2-0.1c-0.1,0-0.3,0.2-0.3,0.2 M3.9,16.1c0.1,0.1,0.3,0.2,0.3,0.5c0.1,0.1,0,0.4,0,0.6c-0.2,0-0.4,0-0.4-0.1
			c-0.1,0-0.1-0.1-0.1-0.1c-0.2-0.1-0.3-0.1-0.4-0.2C3.5,16.6,3.7,16.4,3.9,16.1z"/>
		<path d="M22.3,2.2c-0.5,0-1,0.1-1.4,0.2c-0.1,0-0.1,0-0.1,0C21,2.2,21.2,2,21.5,1.9c-0.1,0-0.1,0-0.1-0.1c-0.3,0-0.4,0.1-0.5,0.1
			c0-0.1,0-0.1,0-0.2c-0.1-0.1-0.3-0.1-0.4-0.1c0.4-0.1,0.9,0.1,1.3-0.2c-0.1,0-0.2-0.1-0.3-0.2c-0.3,0.1-0.6,0.1-0.9,0.1
			c-2.4,0.1-5,1-7.4,2.4c0,0,0,0.1-0.1,0.1c0.8,0,1.4,0.3,1.3,0.8c-0.1,0.4-0.3,0.9-0.5,1.3c-0.2,0.4-0.2,0.6-0.1,0.8
			c0.1,0.1,0.1,0.2-0.2,0.4c-0.3,0.1-0.3,0.3-0.5,0.4c0,0.1,0,0.1,0,0.1c0.2-0.1,0.2-0.1,0.3-0.1c0.1,0.1,0.1,0.4,0.1,0.5
			c0.1,0.1,0.1,0.2-0.2,0.4c-0.6,0.3-0.9,0.7-0.9,1.4c0,0.3-0.1,0.5-0.1,0.8c0.1,0.6-0.3,1.4,0.4,1.8c0.1,0.1,0.3,0.3,0.4,0.4
			c0-0.3,0.2-0.5,0.3-0.6c0.1,0,0.2-0.2,0.2-0.2c0.2-0.3,0.2-0.6,0.6-0.8c0.3-0.3,0.5-0.8,0.5-1.2c0.2-0.1,0.5-0.3,0.6-0.3
			c0.6,0.1,1.1-0.3,1.4-0.7C17,9.1,17.1,9,17.4,8.8c0.5-0.1,0.8-0.2,1.2-0.3C19,8.4,19.3,8.3,19.6,8c-0.3-0.1-0.6-0.2-0.7-0.2
			c0.2-0.1,0.3-0.3,0.5-0.5c0,0.1,0,0.2,0,0.2c0,0.1,0,0.2,0.3,0.2c0.2,0,0.3-0.1,0.3-0.3c-0.1-0.2-0.1-0.5-0.3-0.7
			c0,0,0.1,0,0.3,0.1c0-0.2,0-0.4,0-0.6c0-0.1,0.7,0,0.5-0.3c0.2-0.1,0.2-0.2,0.3-0.3c0,0,0-0.1,0-0.2C21,5.2,21.1,5,20.7,4.8
			c0-0.1,0-0.2,0-0.2s0.2-0.1,0.3-0.1c0,0,0.1,0.1,0.3,0.1c-0.1-0.1-0.1-0.3-0.1-0.4c0-0.2,0-0.5,0.2-0.7c0.3-0.5,0.7-0.8,1.3-1
			c0.1-0.1,0.1-0.2,0.1-0.2c0-0.1-0.1-0.1-0.3-0.1C22.4,2.2,22.4,2.2,22.3,2.2z"/>
		<path d="M4.5,28.3c0.1,0.2,0.2,0.2,0.3,0.2c0.1,0,0.2,0,0.3,0c0.1,0,0.1,0,0.2,0c0-0.1,0-0.3,0-0.3c-0.1-0.3-0.3-0.6-0.7-0.5
			c0-0.1,0.1-0.3,0.1-0.3c-0.4-0.3-0.4-0.3-0.7-0.9c-0.1-0.2-0.2-0.3-0.4-0.2c0,0.1,0.1,0.3,0,0.3C3.7,27.3,4.3,27.7,4.5,28.3z"/>
	</g>
</g>
</svg>
